# xmcd
#
# Track frame offsets:
#	150
#	10671
#	23457
#	37337
#	50079
#	65125
#	79408
#	91034
#	102538
#	118630
#	132229
#	145282
#	157650
#	172132
#	185106
#	200421
#
# Disc length: 2832 seconds
#
# Revision: 1
# Processed by: cddbd v1.5.2PL0 Copyright (c) Steve Scherf et al.
# Submitted via: audiograbber 1.83.01
#
DISCID=e20b0e10
DTITLE=Ray Charles - Ray Charles CD 4
DYEAR=2006
DGENRE=Blues
TTITLE0=Hey Now
TTITLE1=The Snow is Falling
TTITLE2=Misery In My Heart
TTITLE3=Why Did You Go?
TTITLE4=I'm Wondering and Wondering
TTITLE5=Walkin' and Talkin'
TTITLE6=Guitar Blues
TTITLE7=Back Home 
TTITLE8=Let Me Hear You Call My Name
TTITLE9=Someday Baby
TTITLE10=Low Society
TTITLE11=It Should Have Been Me
TTITLE12=Losing Hand
TTITLE13=Heartbreaker
TTITLE14=Sinner's Prayer
TTITLE15=Mess Around
EXTD=
EXTT0=
EXTT1=
EXTT2=
EXTT3=
EXTT4=
EXTT5=
EXTT6=
EXTT7=
EXTT8=
EXTT9=
EXTT10=
EXTT11=
EXTT12=
EXTT13=
EXTT14=
EXTT15=
PLAYORDER=
